<svg width="38" height="38" viewBox="0 0 38 38" fill="none" xmlns="http://www.w3.org/2000/svg">
<path fill-rule="evenodd" clip-rule="evenodd" d="M7.04187 30.1506C7.07514 29.8029 7.03131 29.4522 6.91349 29.1233C6.79567 28.7945 6.60677 28.4957 6.36025 28.2483C3.84275 25.7213 2.375 22.4865 2.375 19C2.375 11.419 9.5095 4.75 19 4.75C28.4905 4.75 35.625 11.419 35.625 19C35.625 26.5834 28.4905 33.25 19 33.25C17.3259 33.2524 15.6586 33.0353 14.041 32.604C13.4757 32.4525 12.8744 32.5151 12.3524 32.7798C11.4333 33.2453 9.40738 34.1335 6.09662 34.9006C6.55851 33.3501 6.87496 31.7599 7.04187 30.1506ZM5.14187 37.5321L5.18937 37.5226C9.53562 36.6605 12.1909 35.5229 13.4259 34.8983C15.2441 35.3832 17.1182 35.6275 19 35.625C29.4928 35.625 38 28.1817 38 19C38 9.81825 29.4928 2.375 19 2.375C8.50725 2.375 0 9.81825 0 19C0 23.18 1.76463 27.0038 4.67875 29.925C4.47487 31.8015 4.05733 33.6485 3.43425 35.4303L3.42712 35.4564C3.25005 35.9667 3.05679 36.4712 2.84763 36.9692C2.66 37.411 3.02338 37.905 3.496 37.829C4.0462 37.739 4.59489 37.64 5.14187 37.5321ZM19 14.2334C22.952 10.1698 32.8344 17.2805 19 26.4219C5.16563 17.2781 15.048 10.1698 19 14.2334Z" fill="#FF725E"/>
</svg>
