<svg width="48" height="48" viewBox="0 0 48 48" fill="none" xmlns="http://www.w3.org/2000/svg">
<path fill-rule="evenodd" clip-rule="evenodd" d="M12.477 13.2599C12.095 13.7269 12 14.0629 12 14.1469C12.0001 14.3537 11.9361 14.5554 11.8169 14.7243C11.6976 14.8931 11.5289 15.0209 11.334 15.0899C10.2604 15.4677 9.1847 15.8397 8.10704 16.2059C8.17504 16.5629 8.28004 16.9929 8.43704 17.4149C8.83304 18.4759 9.35404 18.9999 10 18.9999C11.334 18.9999 12.567 18.9109 13.445 18.5409C13.865 18.3639 14.154 18.1429 14.342 17.8789C14.526 17.6219 14.667 17.2509 14.667 16.6749H16.667C16.667 17.5999 16.432 18.3939 15.97 19.0409C15.7883 19.295 15.5741 19.5243 15.333 19.7229C15.3217 21.006 15.274 22.2886 15.19 23.5689L15.17 23.9069C15.101 25.1069 15.069 25.9379 15.158 26.5929C15.24 27.1979 15.418 27.5849 15.748 27.9199C16.113 28.2899 16.735 28.6679 17.853 29.0899C18.0431 29.1616 18.2068 29.2895 18.3224 29.4565C18.4379 29.6236 18.4999 29.8218 18.5 30.0249C18.5 31.2049 18.632 32.1729 18.75 33.0459C18.809 33.4729 18.864 33.8779 18.899 34.2739C18.944 34.7859 18.973 35.4439 18.721 35.9909C18.5717 36.3227 18.3178 36.5964 17.998 36.7699C17.6899 36.929 17.3467 37.0081 17 36.9999C16.954 36.9999 16.8 37.0309 16.556 37.2359C16.3049 37.4553 16.092 37.7148 15.926 38.0039L15.925 38.0069C16.354 38.0119 16.751 38.0209 17.115 38.0289L17.852 38.0429C18.634 38.0559 19.158 38.0449 19.526 37.9849C19.6406 37.9702 19.7526 37.94 19.859 37.8949C19.878 37.8862 19.8958 37.8751 19.912 37.8619C19.914 37.8589 20 37.7489 20 37.2739V31.0249C20.0001 30.8147 20.0665 30.6099 20.1896 30.4395C20.3128 30.2692 20.4865 30.142 20.686 30.0759L29.019 27.3149C29.2412 27.2413 29.4822 27.2478 29.7 27.3335C29.9178 27.4192 30.0986 27.5786 30.211 27.7839C30.538 28.3819 30.823 28.9299 31.073 29.4099C31.212 29.6779 31.34 29.9239 31.458 30.1459C31.801 30.7899 32.088 31.2809 32.414 31.7149C33.044 32.5499 33.895 33.2699 35.816 34.3269C35.9351 34.3927 36.0396 34.482 36.123 34.5894C36.2064 34.6969 36.267 34.8203 36.301 34.9519C36.451 35.5289 36.478 36.0859 36.227 36.5999C36.036 36.9899 35.7 37.2669 35.551 37.3899L35.503 37.4299C35.353 37.5599 35.261 37.6569 35.183 37.8229C35.1571 37.8804 35.135 37.9395 35.117 37.9999H37.333V33.6959L34.092 26.6459L35.909 25.8109L37.955 30.2609C38.083 29.3009 38.168 28.2109 38.125 27.1309C38.066 25.6129 37.76 24.2399 37.089 23.2699C36.463 22.3649 35.45 21.7059 33.667 21.7059C32.861 21.7059 32.067 21.7159 31.294 21.7259C30.1878 21.7468 29.0813 21.7488 27.975 21.7319C26.242 21.6939 24.613 21.5509 23.122 21.1019C21.611 20.6469 20.253 19.8819 19.06 18.6279C17.877 17.3839 16.895 15.6999 16.063 13.4599C15.709 12.5079 15.288 12.1819 14.998 12.0699C14.694 11.9519 14.291 11.9749 13.798 12.2049C13.308 12.4349 12.829 12.8289 12.478 13.2589L12.477 13.2599ZM39.333 33.6119V38.9999C39.333 39.2652 39.2277 39.5195 39.0401 39.7071C38.8526 39.8946 38.5983 39.9999 38.333 39.9999H34C33.7348 39.9999 33.4805 39.8946 33.2929 39.7071C33.1054 39.5195 33 39.2652 33 38.9999C33 38.1529 33.128 37.5029 33.37 36.9819C33.618 36.4459 33.95 36.1299 34.193 35.9189L34.339 35.7909C32.621 34.8019 31.612 33.9739 30.817 32.9179C30.393 32.3559 30.049 31.7539 29.693 31.0869C29.5534 30.8236 29.415 30.5596 29.278 30.2949C29.144 30.0369 29.004 29.7669 28.851 29.4769L22 31.7469V37.2739C22 37.9119 21.899 38.5739 21.479 39.1039C21.045 39.6519 20.426 39.8639 19.849 39.9589C19.279 40.0519 18.585 40.0549 17.82 40.0429L17.044 40.0279C16.3628 40.0109 15.6815 40.0015 15 39.9999C14.59 39.9999 14.155 39.8229 13.892 39.4049C13.673 39.0579 13.663 38.6849 13.683 38.4479C13.724 37.9579 13.943 37.4329 14.199 36.9959C14.4811 36.5071 14.8439 36.0696 15.272 35.7019C15.685 35.3569 16.254 35.0249 16.925 35.0019V34.9979C16.9321 34.8154 16.9261 34.6326 16.907 34.4509C16.884 34.1979 16.841 33.8779 16.791 33.5049C16.689 32.7429 16.557 31.7639 16.514 30.7069C15.6 30.3149 14.871 29.8769 14.324 29.3239C13.624 28.6139 13.302 27.7919 13.176 26.8609C13.056 25.9809 13.107 24.9479 13.174 23.7929L13.194 23.4549C13.241 22.6389 13.294 21.7249 13.319 20.6819C12.232 20.9559 11.035 20.9999 10 20.9999C7.98004 20.9999 7.00004 19.2879 6.56304 18.1129C6.36021 17.5562 6.20825 16.9822 6.10904 16.3979C6.06711 16.1572 6.03376 15.9151 6.00904 15.6719L6.00504 15.6239L6.00304 15.6099V15.6029L7.00004 15.5289L6.67704 14.5819L7.13104 14.4269C8.13032 14.0847 9.12899 13.7407 10.127 13.3949C10.294 12.8799 10.603 12.3919 10.929 11.9939C11.442 11.3669 12.15 10.7689 12.951 10.3939C13.751 10.0209 14.743 9.82694 15.721 10.2059C16.712 10.5899 17.458 11.4719 17.937 12.7639C18.707 14.8389 19.568 16.2609 20.509 17.2509C21.439 18.2289 22.485 18.8229 23.699 19.1879C24.932 19.5589 26.348 19.6969 28.019 19.7339C29.027 19.7559 30.074 19.7419 31.206 19.7269C31.982 19.7169 32.797 19.7069 33.666 19.7069C36.05 19.7069 37.704 20.6429 38.734 22.1329C39.719 23.5579 40.059 25.3769 40.124 27.0529C40.191 28.7479 39.981 30.4229 39.76 31.6579C39.6428 32.3148 39.5003 32.967 39.333 33.6129V33.6119ZM7.00004 15.5279L6.67704 14.5809C6.46752 14.6525 6.28767 14.7916 6.16569 14.9764C6.04371 15.1611 5.9865 15.3812 6.00304 15.6019L7.00004 15.5279Z" fill="black"/>
<path fill-rule="evenodd" clip-rule="evenodd" d="M38.707 8.29303C38.8945 8.48056 38.9998 8.73487 38.9998 9.00003C38.9998 9.26519 38.8945 9.5195 38.707 9.70703L23.207 25.207C23.0195 25.3946 22.7652 25.5 22.5 25.5H15C14.7348 25.5 14.4804 25.3947 14.2929 25.2071C14.1054 25.0196 14 24.7652 14 24.5C14 24.2348 14.1054 23.9805 14.2929 23.7929C14.4804 23.6054 14.7348 23.5 15 23.5H22.086L37.293 8.29303C37.4805 8.10556 37.7348 8.00024 38 8.00024C38.2652 8.00024 38.5195 8.10556 38.707 8.29303V8.29303Z" fill="white"/>
<path fill-rule="evenodd" clip-rule="evenodd" d="M21.5 30.5V24H23.5V30.5H21.5Z" fill="white"/>
</svg>
