<svg width="41" height="38" viewBox="0 0 41 38" fill="none" xmlns="http://www.w3.org/2000/svg">
<g clip-path="url(#clip0_476_1523)">
<path d="M40.2597 2.68978C40.7224 3.02228 41 3.57076 41 4.15635V29.0938C41 29.7692 40.5587 30.4966 39.8967 30.7563L27.9384 35.5063C27.5753 35.6548 27.1696 35.6622 26.7924 35.536L13.7023 30.9864L2.31622 35.5063C1.79161 35.7142 1.20153 35.6399 0.738854 35.3134C0.510978 35.1489 0.324725 34.9293 0.196048 34.6734C0.0673696 34.4175 0.000100144 34.1328 0 33.8438L0 8.90635C0 8.16416 0.43776 7.50361 1.10045 7.24162L13.0616 2.49162C13.4247 2.34541 13.8304 2.3365 14.2076 2.46639L27.2977 7.01525L38.6866 2.49162C39.2062 2.28307 39.797 2.35728 40.2597 2.68978ZM3.41667 31.261L11.9583 27.8692V6.74139L3.41667 10.131V31.261ZM25.625 10.1903L15.375 6.62783V27.8099L25.625 31.3724V10.1903ZM29.0417 31.261L37.5833 27.8692V6.74139L29.0417 10.131V31.261Z" fill="white"/>
</g>
<defs>
<clipPath id="clip0_476_1523">
<rect width="41" height="38" fill="white"/>
</clipPath>
</defs>
</svg>
