<svg width="12" height="14" viewBox="0 0 12 14" fill="none" xmlns="http://www.w3.org/2000/svg">
<path d="M5.33333 6.9333V10.3333C5.33333 10.5101 5.40357 10.6797 5.5286 10.8047C5.65362 10.9297 5.82319 11 6 11C6.17681 11 6.34638 10.9297 6.4714 10.8047C6.59643 10.6797 6.66667 10.5101 6.66667 10.3333V6.9333C7.47603 6.76809 8.19522 6.30825 8.6848 5.64291C9.17438 4.97758 9.39948 4.15416 9.31645 3.33229C9.23343 2.51042 8.84819 1.74866 8.23544 1.19468C7.62268 0.640704 6.82605 0.333984 6 0.333984C5.17395 0.333984 4.37732 0.640704 3.76456 1.19468C3.15181 1.74866 2.76657 2.51042 2.68355 3.33229C2.60052 4.15416 2.82562 4.97758 3.3152 5.64291C3.80478 6.30825 4.52397 6.76809 5.33333 6.9333ZM6 1.66664C6.39556 1.66664 6.78224 1.78394 7.11114 2.0037C7.44004 2.22346 7.69638 2.53582 7.84776 2.90127C7.99913 3.26672 8.03874 3.66886 7.96157 4.05682C7.8844 4.44478 7.69392 4.80115 7.41421 5.08085C7.13451 5.36056 6.77814 5.55104 6.39018 5.62821C6.00222 5.70538 5.60009 5.66577 5.23463 5.5144C4.86918 5.36302 4.55682 5.10668 4.33706 4.77778C4.1173 4.44888 4 4.0622 4 3.66664C4 3.1362 4.21071 2.6275 4.58579 2.25242C4.96086 1.87735 5.46957 1.66664 6 1.66664V1.66664ZM8.80667 8.6133C8.71912 8.59492 8.62881 8.59396 8.54089 8.61048C8.45297 8.62699 8.36916 8.66067 8.29426 8.70957C8.21935 8.75848 8.15481 8.82166 8.10432 8.89551C8.05383 8.96935 8.01839 9.05242 8 9.13997C7.98162 9.22752 7.98065 9.31783 7.99717 9.40575C8.01369 9.49367 8.04736 9.57747 8.09627 9.65238C8.14517 9.72729 8.20835 9.79183 8.2822 9.84231C8.35605 9.8928 8.43912 9.92825 8.52667 9.94664C10.04 10.2466 10.6667 10.7866 10.6667 11C10.6667 11.3866 9.03333 12.3333 6 12.3333C2.96667 12.3333 1.33333 11.3866 1.33333 11C1.33333 10.7866 1.96 10.2466 3.47333 9.91997C3.56088 9.90159 3.64395 9.86614 3.7178 9.81565C3.79165 9.76516 3.85483 9.70062 3.90373 9.62571C3.95264 9.55081 3.98631 9.467 4.00283 9.37908C4.01935 9.29116 4.01839 9.20085 4 9.1133C3.98162 9.02576 3.94617 8.94269 3.89568 8.86884C3.84519 8.79499 3.78065 8.73181 3.70574 8.6829C3.63084 8.634 3.54703 8.60033 3.45911 8.58381C3.37119 8.56729 3.28088 8.56825 3.19333 8.58664C1.16667 9.0533 0 9.92664 0 11C0 12.7533 3.02 13.6666 6 13.6666C8.98 13.6666 12 12.7533 12 11C12 9.92664 10.8333 9.0533 8.80667 8.6133Z" fill="#FF725E"/>
</svg>
