<svg width="37" height="37" viewBox="0 0 37 37" fill="none" xmlns="http://www.w3.org/2000/svg">
<path d="M12.3335 23.1251H16.9585V27.7501H20.0418V23.1251H24.6668V20.0417H20.0418V15.4167H16.9585V20.0417H12.3335V23.1251Z" fill="#FF725E"/>
<path d="M29.2917 6.16659H26.2083V3.08325H23.125V6.16659H13.875V3.08325H10.7917V6.16659H7.70833C6.00787 6.16659 4.625 7.54946 4.625 9.24992V30.8333C4.625 32.5337 6.00787 33.9166 7.70833 33.9166H29.2917C30.9921 33.9166 32.375 32.5337 32.375 30.8333V9.24992C32.375 7.54946 30.9921 6.16659 29.2917 6.16659ZM29.2948 30.8333H7.70833V12.3333H29.2917L29.2948 30.8333Z" fill="#FF725E"/>
</svg>
