<svg width="44" height="44" viewBox="0 0 44 44" fill="none" xmlns="http://www.w3.org/2000/svg">
<path d="M18.3332 33.0001C21.5873 32.9994 24.7476 31.91 27.311 29.9054L35.3703 37.9648L37.9627 35.3724L29.9033 27.3131C31.909 24.7495 32.9991 21.5884 32.9998 18.3334C32.9998 10.2466 26.42 3.66675 18.3332 3.66675C10.2463 3.66675 3.6665 10.2466 3.6665 18.3334C3.6665 26.4202 10.2463 33.0001 18.3332 33.0001ZM18.3332 7.33342C24.3997 7.33342 29.3332 12.2669 29.3332 18.3334C29.3332 24.3999 24.3997 29.3334 18.3332 29.3334C12.2667 29.3334 7.33317 24.3999 7.33317 18.3334C7.33317 12.2669 12.2667 7.33342 18.3332 7.33342Z" fill="black"/>
</svg>
