<svg width="61" height="61" viewBox="0 0 61 61" fill="none" xmlns="http://www.w3.org/2000/svg">
<path d="M0.5 0.5H56C58.4853 0.5 60.5 2.51472 60.5 5V56C60.5 58.4853 58.4853 60.5 56 60.5H0.5V0.5Z" fill="#FF725E" stroke="#FF725E"/>
<path d="M39.7099 38.29L35.9999 34.61C37.44 32.8144 38.1374 30.5353 37.9487 28.2413C37.76 25.9473 36.6996 23.8128 34.9854 22.2767C33.2713 20.7405 31.0337 19.9195 28.7328 19.9825C26.4319 20.0455 24.2426 20.9876 22.615 22.6152C20.9875 24.2427 20.0453 26.4321 19.9824 28.7329C19.9194 31.0338 20.7404 33.2714 22.2765 34.9855C23.8127 36.6997 25.9472 37.7601 28.2412 37.9488C30.5352 38.1375 32.8143 37.4401 34.6099 36L38.2899 39.68C38.3829 39.7738 38.4935 39.8482 38.6153 39.8989C38.7372 39.9497 38.8679 39.9758 38.9999 39.9758C39.1319 39.9758 39.2626 39.9497 39.3845 39.8989C39.5063 39.8482 39.6169 39.7738 39.7099 39.68C39.8901 39.4936 39.9909 39.2444 39.9909 38.985C39.9909 38.7257 39.8901 38.4765 39.7099 38.29ZM28.9999 36C27.6154 36 26.2621 35.5895 25.1109 34.8203C23.9598 34.0511 23.0626 32.9579 22.5327 31.6788C22.0029 30.3997 21.8643 28.9923 22.1344 27.6344C22.4045 26.2765 23.0712 25.0292 24.0502 24.0503C25.0291 23.0713 26.2764 22.4046 27.6343 22.1345C28.9921 21.8644 30.3996 22.0031 31.6787 22.5329C32.9578 23.0627 34.051 23.9599 34.8202 25.111C35.5894 26.2622 35.9999 27.6156 35.9999 29C35.9999 30.8565 35.2624 32.637 33.9497 33.9498C32.6369 35.2625 30.8564 36 28.9999 36Z" fill="white"/>
</svg>
