<svg width="50" height="50" viewBox="0 0 50 50" fill="none" xmlns="http://www.w3.org/2000/svg">
<path d="M5 0.5H49.5V49.5H5C2.51472 49.5 0.5 47.4853 0.5 45V5C0.5 2.51472 2.51472 0.5 5 0.5Z" fill="#FF725E" stroke="#FF725E"/>
<path d="M32.5493 31.3853L29.5083 28.3689C30.6888 26.8971 31.2604 25.029 31.1057 23.1486C30.9511 21.2683 30.0818 19.5187 28.6768 18.2596C27.2718 17.0004 25.4377 16.3275 23.5517 16.3791C21.6658 16.4307 19.8712 17.203 18.5372 18.537C17.2031 19.8711 16.4308 21.6656 16.3792 23.5516C16.3276 25.4376 17.0006 27.2716 18.2597 28.6767C19.5188 30.0817 21.2684 30.9509 23.1488 31.1056C25.0291 31.2603 26.8972 30.6886 28.369 29.5082L31.3854 32.5246C31.4616 32.6014 31.5523 32.6624 31.6521 32.704C31.752 32.7457 31.8592 32.7671 31.9674 32.7671C32.0756 32.7671 32.1827 32.7457 32.2826 32.704C32.3825 32.6624 32.4731 32.6014 32.5493 32.5246C32.6971 32.3718 32.7797 32.1675 32.7797 31.9549C32.7797 31.7424 32.6971 31.5381 32.5493 31.3853V31.3853ZM23.7706 29.5082C22.6358 29.5082 21.5265 29.1717 20.5829 28.5413C19.6394 27.9108 18.904 27.0147 18.4697 25.9662C18.0354 24.9178 17.9218 23.7642 18.1432 22.6512C18.3646 21.5381 18.911 20.5158 19.7135 19.7134C20.5159 18.9109 21.5383 18.3645 22.6513 18.1431C23.7643 17.9217 24.9179 18.0353 25.9664 18.4696C27.0148 18.9038 27.9109 19.6393 28.5414 20.5828C29.1718 21.5264 29.5083 22.6357 29.5083 23.7705C29.5083 25.2923 28.9038 26.7517 27.8278 27.8277C26.7518 28.9037 25.2924 29.5082 23.7706 29.5082V29.5082Z" fill="white"/>
</svg>
